<?xml version="1.0" standalone="no"?><!-- Generator: Gravit.io --><svg xmlns="http://www.w3.org/2000/svg" xmlns:xlink="http://www.w3.org/1999/xlink" style="isolation:isolate" viewBox="0 0 272 143" width="272" height="143"><defs><clipPath id="_clipPath_6fUJ7QqdGCjTOIuBgIuPDeyNu7O6BtJy"><rect width="272" height="143"/></clipPath></defs><g clip-path="url(#_clipPath_6fUJ7QqdGCjTOIuBgIuPDeyNu7O6BtJy)"><clipPath id="_clipPath_hMfyv6aJ9Y6peymCl7HIvEBOk6gJO7o6"><rect x="0" y="0" width="271" height="143" transform="matrix(1,0,0,1,0,0)" fill="rgb(255,255,255)"/></clipPath><g clip-path="url(#_clipPath_hMfyv6aJ9Y6peymCl7HIvEBOk6gJO7o6)"><g><rect x="0" y="0" width="271" height="143" transform="matrix(1,0,0,1,0,0)" fill="none"/><g><path d=" M 162.099 95.346 L 162.099 26.685 L 184.175 0 L 184.175 36.388 L 184.175 36.388 Q 218.258 49.326 218.258 64.699 L 218.258 64.699 Q 220.623 95.389 185.812 95.389 L 185.812 95.389 L 185.812 95.389 L 162.099 95.346 Z  M 181.87 60.039 L 188.481 68.933 L 209 68.933 L 181.87 60.039 Z " fill-rule="evenodd" fill="rgb(70,70,70)"/><path d=" M 15.606 120.202 L 14.03 123.962 L 14.03 123.962 Q 12.614 123.315 11.402 122.971 L 11.402 122.971 L 11.402 122.971 Q 10.189 122.627 8.814 122.627 L 8.814 122.627 L 8.814 122.627 Q 7.803 122.627 7.257 123.012 L 7.257 123.012 L 7.257 123.012 Q 6.712 123.396 6.712 124.083 L 6.712 124.083 L 6.712 124.083 Q 6.712 124.568 7.379 125.013 L 7.379 125.013 L 7.379 125.013 Q 8.046 125.458 9.542 125.983 L 9.542 125.983 L 9.542 125.983 Q 12.008 126.873 14.11 128.47 L 14.11 128.47 L 14.11 128.47 Q 16.213 130.067 16.213 132.614 L 16.213 132.614 L 16.213 132.614 Q 16.213 135.525 14.131 137.142 L 14.131 137.142 L 14.131 137.142 Q 12.048 138.759 8.046 138.759 L 8.046 138.759 L 8.046 138.759 Q 6.792 138.759 4.71 138.274 L 4.71 138.274 L 4.71 138.274 Q 2.628 137.789 1.253 136.738 L 1.253 136.738 L 2.83 132.937 L 2.83 132.937 Q 4.245 133.584 5.559 133.928 L 5.559 133.928 L 5.559 133.928 Q 6.873 134.272 7.965 134.272 L 7.965 134.272 L 7.965 134.272 Q 9.42 134.272 10.189 133.867 L 10.189 133.867 L 10.189 133.867 Q 10.957 133.463 10.957 132.816 L 10.957 132.816 L 10.957 132.816 Q 10.957 132.007 10.189 131.361 L 10.189 131.361 L 10.189 131.361 Q 9.42 130.714 7.763 130.188 L 7.763 130.188 L 7.763 130.188 Q 5.418 129.42 3.336 127.985 L 3.336 127.985 L 3.336 127.985 Q 1.253 126.549 1.253 124.123 L 1.253 124.123 L 1.253 124.123 Q 1.253 121.334 3.315 119.737 L 3.315 119.737 L 3.315 119.737 Q 5.377 118.14 8.895 118.14 L 8.895 118.14 L 8.895 118.14 Q 10.148 118.14 12.129 118.665 L 12.129 118.665 L 12.129 118.665 Q 14.11 119.191 15.606 120.202 L 15.606 120.202 L 15.606 120.202 Z  M 44.393 138.759 L 44.393 138.759 L 44.393 138.759 Q 39.744 138.719 37.136 135.929 L 37.136 135.929 L 37.136 135.929 Q 34.528 133.14 34.528 128.409 L 34.528 128.409 L 34.528 128.409 Q 34.528 123.719 37.257 120.929 L 37.257 120.929 L 37.257 120.929 Q 39.986 118.14 44.717 118.14 L 44.717 118.14 L 44.717 118.14 Q 49.609 118.14 52.298 121.03 L 52.298 121.03 L 52.298 121.03 Q 54.986 123.921 54.986 128.611 L 54.986 128.611 L 54.986 128.611 Q 54.986 133.301 52.075 136.01 L 52.075 136.01 L 52.075 136.01 Q 49.164 138.719 44.393 138.759 Z  M 49.569 128.611 L 49.569 128.611 L 49.569 128.611 Q 49.569 125.822 48.335 124.225 L 48.335 124.225 L 48.335 124.225 Q 47.102 122.627 44.838 122.627 L 44.838 122.627 L 44.838 122.627 Q 42.534 122.627 41.24 124.043 L 41.24 124.043 L 41.24 124.043 Q 39.946 125.458 39.946 128.369 L 39.946 128.369 L 39.946 128.369 Q 39.946 131.28 41.058 132.776 L 41.058 132.776 L 41.058 132.776 Q 42.17 134.272 44.474 134.272 L 44.474 134.272 L 44.474 134.272 Q 46.738 134.272 48.153 132.917 L 48.153 132.917 L 48.153 132.917 Q 49.569 131.563 49.569 128.611 Z  M 75.323 119.07 L 75.323 117.21 L 75.323 117.21 Q 75.323 113.814 77.324 111.853 L 77.324 111.853 L 77.324 111.853 Q 79.326 109.892 82.965 109.892 L 82.965 109.892 L 82.965 109.892 Q 83.895 109.892 85.067 110.256 L 85.067 110.256 L 85.067 110.256 Q 86.24 110.619 86.886 111.145 L 86.886 111.145 L 85.39 114.946 L 85.39 114.946 Q 84.784 114.703 84.238 114.561 L 84.238 114.561 L 84.238 114.561 Q 83.692 114.42 83.207 114.42 L 83.207 114.42 L 83.207 114.42 Q 81.833 114.42 81.206 115.411 L 81.206 115.411 L 81.206 115.411 Q 80.579 116.401 80.579 117.937 L 80.579 117.937 L 80.579 119.07 L 84.299 119.07 L 85.956 123.153 L 80.579 123.153 L 80.579 138.274 L 75.323 138.274 L 75.323 123.153 L 72.291 123.153 L 72.291 119.07 L 75.323 119.07 L 75.323 119.07 Z  M 115.552 134.069 L 117.088 137.87 L 117.088 137.87 Q 116.442 138.396 115.249 138.739 L 115.249 138.739 L 115.249 138.739 Q 114.056 139.083 113.126 139.083 L 113.126 139.083 L 113.126 139.083 Q 109.487 139.083 107.405 137.243 L 107.405 137.243 L 107.405 137.243 Q 105.323 135.404 105.323 132.007 L 105.323 132.007 L 105.323 122.749 L 102.695 122.749 L 102.695 118.706 L 105.323 118.706 L 105.323 114.056 L 110.539 113.126 L 110.539 118.706 L 114.097 118.706 L 115.714 122.749 L 110.539 122.749 L 110.539 131.078 L 110.539 131.078 Q 110.539 132.614 111.266 133.605 L 111.266 133.605 L 111.266 133.605 Q 111.994 134.595 113.409 134.595 L 113.409 134.595 L 113.409 134.595 Q 113.935 134.595 114.46 134.474 L 114.46 134.474 L 114.46 134.474 Q 114.986 134.352 115.552 134.069 L 115.552 134.069 L 115.552 134.069 Z  M 156.468 138.274 L 152.061 138.274 L 147.978 126.266 L 144.056 138.274 L 139.609 138.274 L 133.099 119.393 L 138.517 118.665 L 141.954 130.067 L 145.188 118.665 L 150.97 118.665 L 154.406 130.067 L 157.6 118.665 L 163.139 118.665 L 156.468 138.274 L 156.468 138.274 Z  M 185.174 132.412 L 185.174 132.412 L 185.174 132.412 Q 185.174 133.261 185.862 133.928 L 185.862 133.928 L 185.862 133.928 Q 186.549 134.595 187.681 134.595 L 187.681 134.595 L 187.681 134.595 Q 188.773 134.595 189.885 134.11 L 189.885 134.11 L 189.885 134.11 Q 190.996 133.625 192.007 132.654 L 192.007 132.654 L 192.007 129.662 L 188.045 129.662 L 188.045 129.662 Q 186.67 129.662 185.922 130.512 L 185.922 130.512 L 185.922 130.512 Q 185.174 131.361 185.174 132.412 Z  M 187.762 138.759 L 187.762 138.759 L 187.762 138.759 Q 184.164 138.759 182.425 137.001 L 182.425 137.001 L 182.425 137.001 Q 180.687 135.242 180.687 132.412 L 180.687 132.412 L 180.687 132.412 Q 180.687 129.379 182.749 127.762 L 182.749 127.762 L 182.749 127.762 Q 184.81 126.145 188.126 126.145 L 188.126 126.145 L 191.967 126.145 L 191.967 126.145 Q 191.926 124.649 191.098 123.82 L 191.098 123.82 L 191.098 123.82 Q 190.269 122.991 188.813 122.991 L 188.813 122.991 L 188.813 122.991 Q 187.439 122.991 185.821 123.375 L 185.821 123.375 L 185.821 123.375 Q 184.204 123.76 183.112 124.285 L 183.112 124.285 L 181.697 119.919 L 181.697 119.919 Q 182.829 119.15 185.154 118.645 L 185.154 118.645 L 185.154 118.645 Q 187.479 118.14 188.732 118.14 L 188.732 118.14 L 188.732 118.14 Q 192.25 118.14 194.757 120.181 L 194.757 120.181 L 194.757 120.181 Q 197.263 122.223 197.263 125.377 L 197.263 125.377 L 197.263 138.274 L 194.554 138.274 L 193.261 136.617 L 193.261 136.617 Q 192.169 137.466 190.693 138.113 L 190.693 138.113 L 190.693 138.113 Q 189.217 138.759 187.762 138.759 Z  M 228.233 118.665 L 228.233 118.665 L 229.285 122.87 L 229.285 122.87 Q 227.95 122.87 226.192 123.638 L 226.192 123.638 L 226.192 123.638 Q 224.433 124.406 222.735 125.902 L 222.735 125.902 L 222.735 138.274 L 217.479 138.274 L 217.479 118.665 L 220.228 118.665 L 221.967 121.536 L 221.967 121.536 Q 223.18 120.485 224.918 119.575 L 224.918 119.575 L 224.918 119.575 Q 226.657 118.665 228.233 118.665 Z  M 257.465 138.759 L 257.465 138.759 L 257.465 138.759 Q 252.371 138.759 249.44 135.97 L 249.44 135.97 L 249.44 135.97 Q 246.508 133.18 246.508 128.49 L 246.508 128.49 L 246.508 128.49 Q 246.508 123.8 249.157 120.97 L 249.157 120.97 L 249.157 120.97 Q 251.805 118.14 256.374 118.14 L 256.374 118.14 L 256.374 118.14 Q 260.983 118.14 263.146 121.192 L 263.146 121.192 L 263.146 121.192 Q 265.309 124.245 265.309 128.409 L 265.309 128.409 L 265.309 130.026 L 252.088 130.026 L 252.088 130.026 Q 252.452 131.967 253.867 133.119 L 253.867 133.119 L 253.867 133.119 Q 255.282 134.272 257.586 134.272 L 257.586 134.272 L 257.586 134.272 Q 258.921 134.272 259.992 133.928 L 259.992 133.928 L 259.992 133.928 Q 261.064 133.584 262.479 132.937 L 262.479 132.937 L 264.015 136.738 L 264.015 136.738 Q 262.64 137.789 260.679 138.274 L 260.679 138.274 L 260.679 138.274 Q 258.719 138.759 257.465 138.759 Z  M 252.128 126.509 L 260.336 126.509 L 260.336 126.509 Q 259.931 124.528 258.88 123.578 L 258.88 123.578 L 258.88 123.578 Q 257.829 122.627 256.252 122.627 L 256.252 122.627 L 256.252 122.627 Q 254.635 122.627 253.543 123.618 L 253.543 123.618 L 253.543 123.618 Q 252.452 124.609 252.128 126.509 L 252.128 126.509 L 252.128 126.509 Z " fill-rule="evenodd" fill="rgb(70,70,70)"/><path d=" M 71.561 54.434 Q 73.213 53.695 74.939 53.005 L 74.939 53.005 L 74.939 53.005 Q 77.668 51.914 79.487 51.914 L 79.487 51.914 L 79.487 51.914 Q 82.035 51.914 83.733 53.733 L 83.733 53.733 L 83.733 53.733 Q 85.431 55.552 85.431 58.949 L 85.431 58.949 L 85.431 94.851 L 107.506 94.851 L 107.506 58.463 L 107.506 58.463 Q 107.506 57.736 107.446 56.947 L 107.446 56.947 L 107.446 56.947 Q 107.385 56.159 107.385 55.431 L 107.385 55.431 L 107.385 55.431 Q 109.932 54.218 112.601 53.066 L 112.601 53.066 L 112.601 53.066 Q 115.269 51.914 117.331 51.914 L 117.331 51.914 L 117.331 51.914 Q 119.878 51.914 121.576 53.733 L 121.576 53.733 L 121.576 53.733 Q 123.274 55.552 123.274 58.949 L 123.274 58.949 L 123.274 94.851 L 145.35 94.851 L 145.35 58.463 L 145.35 58.463 Q 145.35 47.911 140.134 40.936 L 140.134 40.936 L 140.134 40.936 Q 134.919 33.962 123.396 33.962 L 123.396 33.962 L 123.396 33.962 Q 116.482 33.962 111.084 36.267 L 111.084 36.267 L 111.084 36.267 Q 105.687 38.571 102.048 40.633 L 102.048 40.633 L 102.048 40.633 L 102.048 40.633 Q 99.38 37.601 95.256 35.782 L 95.256 35.782 L 95.256 35.782 Q 91.132 33.962 85.552 33.962 L 85.552 33.962 L 85.552 33.962 Q 78.153 33.962 72.513 36.509 L 72.513 36.509 L 72.513 36.509 Q 68.217 38.45 65.082 40.179 L 71.561 54.434 Z  M 69.663 55.563 L 69.663 94.851 L 47.587 94.851 L 47.587 36.145 L 60.727 36.267 L 62.407 39.598 L 69.663 55.563 Z  M 11.442 68.773 L 11.442 68.773 L 11.442 36.118 L 33.517 36.118 L 33.517 75.202 L 33.517 75.202 Q 33.517 84.42 28.362 89.272 L 28.362 89.272 L 28.362 89.272 Q 23.207 94.124 10.35 98.248 L 10.35 98.248 L 1.375 80.781 L 1.375 80.781 Q 8.046 78.113 9.744 75.081 L 9.744 75.081 L 9.744 75.081 Q 11.442 72.048 11.442 68.773 L 11.442 68.773 Z  M 253.543 94.851 L 231.468 94.851 L 231.468 36.145 L 242.506 36.145 L 247.843 42.089 L 247.843 42.089 Q 251.481 39.663 256.454 37.843 L 256.454 37.843 L 256.454 37.843 Q 261.427 36.024 266.4 36.024 L 266.4 36.024 L 270.888 53.733 L 270.888 53.733 Q 266.522 53.733 261.913 54.946 L 261.913 54.946 L 261.913 54.946 Q 257.303 56.159 253.543 59.07 L 253.543 59.07 L 253.543 94.851 L 253.543 94.851 Z " fill-rule="evenodd" fill="rgb(0,170,255)"/></g></g></g><path d=" M 182 60 L 188 69 L 209 69 L 182 60 Z " fill="rgb(0,170,255)"/></g></svg>